<?xml version="1.0" encoding="UTF-8"?>
<svg version="1.1" xmlns="http://www.w3.org/2000/svg" width="842" height="596">
<path d="M0 0 C0.66 0.33 1.32 0.66 2 1 C-3.22423526 5.74471608 -8.54645058 10.30271674 -14.08203125 14.6796875 C-17.66291239 17.52713515 -21.20517946 20.42038459 -24.75 23.3125 C-29.77336156 27.40595775 -34.82685716 31.45361887 -39.9375 35.4375 C-46.62400871 40.65565522 -53.16232084 46.04557989 -59.69921875 51.44921875 C-68.69453866 58.88402236 -77.7363624 66.25853258 -86.9375 73.4375 C-93.61864949 78.65198584 -100.15246302 84.0370417 -106.68359375 89.4375 C-115.8281242 96.99626177 -125.05021597 104.46116206 -134.328125 111.85546875 C-137.12307144 114.09878102 -139.90212194 116.36078042 -142.67993164 118.62524414 C-148.99920313 123.77590876 -155.33851593 128.89463931 -161.77807617 133.89453125 C-164.81562503 136.25807416 -167.80609209 138.66106545 -170.75 141.140625 C-185.1405999 153.17703632 -200.18149399 160.15343273 -219.375 158.75390625 C-232.27941107 157.03433261 -242.98831922 152.51449119 -251.3125 142.1875 C-258.24597748 132.00938682 -259.29198047 122.057542 -258 110 C-256.35035302 101.86889979 -252.14470975 95.39790828 -247 89 C-246.49984375 88.37351562 -245.9996875 87.74703125 -245.484375 87.1015625 C-238.43905338 79.23784494 -227.19025218 73.45133303 -217 71 C-215.90365234 70.72929687 -215.90365234 70.72929687 -214.78515625 70.453125 C-201.38115843 68.27239043 -187.61051634 69.55938863 -176 76.9375 C-172.67991626 79.35320992 -169.74889093 81.9369501 -167 85 C-165.948125 86.1446875 -165.948125 86.1446875 -164.875 87.3125 C-163.22127449 89.6828399 -162.34855393 91.49171921 -161.3828125 94.16796875 C-160.99053467 95.24534302 -160.99053467 95.24534302 -160.59033203 96.34448242 C-160.39552246 96.89080322 -160.20071289 97.43712402 -160 98 C-160.76689651 98.50500031 -160.76689651 98.50500031 -161.54928589 99.02020264 C-166.96994507 102.58984462 -172.39012756 106.16020958 -177.81005859 109.73095703 C-179.82100917 111.05567913 -181.83207306 112.38022923 -183.84326172 113.70458984 C-196.5883876 122.09741113 -209.31361357 130.51861835 -222 139 C-219.75261284 141.24738716 -215.21859231 140.37442462 -212.19506836 140.3762207 C-199.17762882 140.0522676 -189.52422007 133.04629272 -179.36230469 125.6953125 C-175.83446974 123.16355497 -172.26177504 120.69765335 -168.69213867 118.2253418 C-157.91769451 110.76253494 -147.18501725 103.2394904 -136.45166016 95.71777344 C-132.30213572 92.8103791 -128.15097694 89.90531999 -124 87 C-122.33332569 85.83334425 -120.66665902 84.66667759 -119 83.5 C-49 34.5 -49 34.5 -46.49853516 32.74902344 C-44.83669009 31.58569942 -43.17490595 30.42228836 -41.51318359 29.25878906 C-37.27324908 26.29025284 -33.03217272 23.32337056 -28.7890625 20.359375 C-19.15387994 13.62633405 -9.5458947 6.85913626 0 0 Z M-236.3359375 103.71484375 C-240.84071072 109.90097598 -241.9924231 116.42149631 -241 124 C-240.05655008 126.23326079 -240.05655008 126.23326079 -239 128 C-235.54779825 126.72175418 -232.6235973 125.23995981 -229.58032227 123.17431641 C-228.73917374 122.60677643 -227.89802521 122.03923645 -227.03138733 121.45449829 C-226.13544357 120.84302948 -225.23949982 120.23156067 -224.31640625 119.6015625 C-223.3832811 118.97019379 -222.45015594 118.33882507 -221.48875427 117.68832397 C-218.51031308 115.67163461 -215.53634661 113.6484569 -212.5625 111.625 C-210.56474987 110.27039559 -208.56670615 108.91622406 -206.56835938 107.5625 C-202.89341395 105.07253478 -199.22040511 102.57976071 -195.54907227 100.08447266 C-192.04472323 97.70452499 -188.52974899 95.34209227 -185 93 C-188.96128926 88.45279657 -194.62985783 87.45659991 -200.421875 86.671875 C-214.85142715 86.01169941 -227.28872679 92.91946683 -236.3359375 103.71484375 Z " fill="#034784" transform="translate(380,196)"/>
<path d="M0 0 C0.99 0.495 0.99 0.495 2 1 C-1.12572471 4.15072128 -4.2549331 7.29793136 -7.38720703 10.44213867 C-8.44900861 11.50892297 -9.50990558 12.57660853 -10.56982422 13.64526367 C-15.93339914 19.05188901 -21.30854421 24.36849136 -27.10498047 29.31665039 C-31.55377319 33.26852179 -35.61303942 37.65732368 -39.73242188 41.94726562 C-44.84786131 47.16510694 -49.45102401 50.46906918 -56.1875 53.375 C-60.30720324 55.75527298 -62.31828442 58.95485325 -63.8125 63.4375 C-66.27837173 68.75859162 -71.32026077 72.4405033 -75.7109375 76.1953125 C-80.18420065 80.0958491 -84.3431303 84.26741319 -88.5 88.5 C-92.54948464 92.62324574 -96.58358948 96.700117 -100.96875 100.46875 C-105.55178661 104.41187392 -109.76340089 108.69110398 -114 113 C-118.85646346 117.93933826 -123.75021776 122.71151141 -129.00390625 127.2265625 C-132.66795488 130.48190121 -136.06705043 134.00451948 -139.5 137.5 C-143.54948464 141.62324574 -147.58358948 145.700117 -151.96875 149.46875 C-156.55178661 153.41187392 -160.76340089 157.69110398 -165 162 C-169.94108195 167.02540075 -174.90612918 171.92003597 -180.2734375 176.4921875 C-182.03453259 177.92198057 -182.03453259 177.92198057 -183.2434082 179.67700195 C-186.09955696 181.82814443 -189.30128241 181.36588173 -192.73046875 181.29296875 C-193.48088943 181.28872391 -194.23131012 181.28447906 -195.00447083 181.28010559 C-197.39918026 181.2633245 -199.79304534 181.2256749 -202.1875 181.1875 C-203.8118368 181.17245235 -205.4361868 181.15876409 -207.06054688 181.14648438 C-211.04068948 181.11342305 -215.02020163 181.06164594 -219 181 C-216.22311833 178.18108953 -213.45770237 175.44270791 -210.390625 172.94140625 C-209.72691895 172.39766357 -209.06321289 171.8539209 -208.37939453 171.29370117 C-207.67669434 170.72240479 -206.97399414 170.1511084 -206.25 169.5625 C-204.73170456 168.32039351 -203.21347738 167.07820357 -201.6953125 165.8359375 C-200.91961914 165.20268555 -200.14392578 164.56943359 -199.34472656 163.91699219 C-195.59554104 160.85174804 -191.86102719 157.7687552 -188.125 154.6875 C-182.73803494 150.2494994 -177.34237587 145.82242906 -171.9375 141.40625 C-168.11888852 138.27823847 -164.30945577 135.13915083 -160.5 132 C-155.83926544 128.15935985 -151.17669799 124.32120446 -146.5 120.5 C-138.98156039 114.35577669 -131.49323 108.1749163 -124 102 C-115.65547241 95.12355828 -107.31070452 88.24777077 -98.9375 81.40625 C-95.11888852 78.27823847 -91.30945577 75.13915083 -87.5 72 C-82.83926544 68.15935985 -78.17669799 64.32120446 -73.5 60.5 C-65.98156039 54.35577669 -58.49323 48.1749163 -51 42 C-42.66190522 35.12885934 -34.32324225 28.25877862 -25.95703125 21.421875 C-22.02854507 18.2043566 -18.10760002 14.97772741 -14.1875 11.75 C-13.46949219 11.15896484 -12.75148438 10.56792969 -12.01171875 9.95898438 C-7.99702509 6.65210517 -3.99212983 3.33408645 0 0 Z " fill="#034784" transform="translate(412,173)"/>
<path d="M0 0 C5.96114352 4.59684057 10.85671323 9.8070296 11.89453125 17.4609375 C12.26901322 23.83564187 12.2983891 28.45129288 9.89453125 34.4609375 C-4.62546875 34.4609375 -19.14546875 34.4609375 -34.10546875 34.4609375 C-32.82973675 41.00963697 -32.82973675 41.00963697 -30.28125 43.34375 C-25.12972433 45.98887808 -19.74827943 45.94570131 -14.29296875 44.3359375 C-10.99154058 42.39392093 -8.64783767 40.31147235 -6.10546875 37.4609375 C-1.13312655 38.95264016 3.31298864 41.06551167 7.89453125 43.4609375 C6.83931058 49.38336353 2.47396644 53.6489751 -2.32421875 57.01953125 C-11.7275453 62.44576592 -21.44568781 64.10513212 -32.14453125 61.80859375 C-40.31130649 59.18757635 -45.50865151 54.86370746 -49.48046875 47.2734375 C-53.37652826 38.95619742 -53.39156581 29.29717399 -50.48046875 20.6484375 C-46.58550224 11.24585169 -39.98705522 3.59624407 -30.79296875 -0.9140625 C-21.90742992 -4.15755674 -8.44436253 -4.69686437 0 0 Z M-30.10546875 17.4609375 C-30.76546875 18.7809375 -31.42546875 20.1009375 -32.10546875 21.4609375 C-23.19546875 21.4609375 -14.28546875 21.4609375 -5.10546875 21.4609375 C-5.66755042 16.63450086 -5.66755042 16.63450086 -7.98046875 14.1484375 C-15.4849493 10.096018 -23.9824524 11.62949336 -30.10546875 17.4609375 Z " fill="#034784" transform="translate(673.10546875,294.5390625)"/>
<path d="M0 0 C3.83925951 3.24798115 6.24808572 6.7559759 7.8515625 11.56640625 C8.616064 22.71140462 7.00592489 33.11280913 4.8515625 44.00390625 C4.56124478 45.52515161 4.27217603 47.04663588 3.984375 48.56835938 C3.28997072 52.23792683 2.57047604 55.90123095 1.8515625 59.56640625 C-4.0884375 59.56640625 -10.0284375 59.56640625 -16.1484375 59.56640625 C-16.4784375 58.57640625 -16.8084375 57.58640625 -17.1484375 56.56640625 C-18.0559375 57.20578125 -18.9634375 57.84515625 -19.8984375 58.50390625 C-25.84321499 62.2765535 -32.51663344 62.52864723 -39.3671875 61.10546875 C-44.39772389 59.46087032 -47.98067377 56.80745835 -51.1484375 52.56640625 C-54.26033643 46.3426084 -53.99040361 39.2695606 -51.9609375 32.75390625 C-47.96061899 25.71886335 -42.4383133 22.59795654 -35.1484375 19.56640625 C-26.48506212 17.26795972 -17.76530816 18.76250062 -9.1484375 20.56640625 C-9.8084375 18.25640625 -10.4684375 15.94640625 -11.1484375 13.56640625 C-17.36174652 11.94119464 -22.02850587 10.92643574 -28.1484375 13.56640625 C-29.0353125 14.28828125 -29.9221875 15.01015625 -30.8359375 15.75390625 C-33.1484375 17.56640625 -33.1484375 17.56640625 -34.99609375 17.37109375 C-37.58759091 16.40222185 -39.62379171 15.0760879 -41.8984375 13.50390625 C-42.69765625 12.95605469 -43.496875 12.40820312 -44.3203125 11.84375 C-44.92359375 11.42222656 -45.526875 11.00070312 -46.1484375 10.56640625 C-45.40106406 6.28515594 -43.58733149 4.65100471 -40.2578125 2.02734375 C-29.52715328 -5.40463134 -11.40079467 -7.07010411 0 0 Z M-33.1484375 35.56640625 C-35.46881845 38.39209171 -35.46881845 38.39209171 -34.9609375 41.62890625 C-34.41089252 44.86381578 -34.41089252 44.86381578 -31.1484375 46.56640625 C-26.57002876 47.31639321 -23.00636172 46.98727473 -18.8359375 44.94140625 C-15.93991221 42.38212809 -14.04707947 39.92554204 -12.1484375 36.56640625 C-12.1484375 35.90640625 -12.1484375 35.24640625 -12.1484375 34.56640625 C-18.87842536 31.73272715 -27.22788187 30.57093744 -33.1484375 35.56640625 Z " fill="#FF781D" transform="translate(545.1484375,295.43359375)"/>
<path d="M0 0 C22.11 0 44.22 0 67 0 C66 11 66 11 64 18 C56.08 18 48.16 18 40 18 C39.63648438 20.20429688 39.27296875 22.40859375 38.8984375 24.6796875 C36.34866444 40.10641889 33.77237738 55.52869867 31.08111572 70.93145752 C30.81863336 72.43589781 30.5575255 73.94057856 30.29779053 75.44549561 C29.93559085 77.54120816 29.56820225 79.63594146 29.19921875 81.73046875 C28.99127686 82.92051514 28.78333496 84.11056152 28.5690918 85.33666992 C28 88 28 88 27 89 C25.65732587 89.08631874 24.31025678 89.10706473 22.96484375 89.09765625 C22.15595703 89.09443359 21.34707031 89.09121094 20.51367188 89.08789062 C19.66353516 89.07951172 18.81339844 89.07113281 17.9375 89.0625 C17.08349609 89.05798828 16.22949219 89.05347656 15.34960938 89.04882812 C13.23304337 89.03700373 11.11651315 89.01906769 9 89 C10.40084746 75.97150146 12.63397189 63.11739775 14.94116211 50.22314453 C15.56859668 46.71592085 16.19004506 43.207675 16.81054688 39.69921875 C17.20799162 37.4608768 17.60576583 35.22259331 18.00390625 32.984375 C18.18933487 31.93965027 18.37476349 30.89492554 18.56581116 29.81854248 C18.73946701 28.84942932 18.91312286 27.88031616 19.09204102 26.88183594 C19.24367203 26.03296814 19.39530304 25.18410034 19.55152893 24.30950928 C19.96287211 22.19119897 20.47663747 20.09345012 21 18 C13.08 18 5.16 18 -3 18 C-1.125 4.5 -1.125 4.5 0 0 Z " fill="#FF781D" transform="translate(391,266)"/>
<path d="M0 0 C6.6 0 13.2 0 20 0 C23.01651063 11.58975135 25.49252787 23.29151885 28 35 C30.21102244 31.2307375 32.41830862 27.45929946 34.625 23.6875 C35.55119141 22.1087207 35.55119141 22.1087207 36.49609375 20.49804688 C40.45401366 13.72792071 44.27686246 6.90212421 48 0 C54.93 0 61.86 0 69 0 C67.59769716 4.20690852 66.73216312 6.77526988 64.48828125 10.30078125 C63.98498291 11.10088623 63.48168457 11.90099121 62.96313477 12.7253418 C62.14607056 14.00598511 62.14607056 14.00598511 61.3125 15.3125 C60.13900001 17.17866665 58.96719861 19.04590222 57.796875 20.9140625 C57.18005859 21.89793945 56.56324219 22.88181641 55.92773438 23.89550781 C52.57834963 29.28947646 49.32096505 34.73828563 46.0625 40.1875 C45.44866455 41.21335205 44.8348291 42.2392041 44.20239258 43.29614258 C43.61095459 44.28509521 43.0195166 45.27404785 42.41015625 46.29296875 C41.83104492 47.24300781 41.25193359 48.19304687 40.65527344 49.171875 C38.9654026 51.98073126 38.9654026 51.98073126 37.55566406 54.9375 C34.16155241 61.58009361 34.16155241 61.58009361 30.8449707 62.77905273 C28.36060044 62.98623298 26.10344659 62.88193625 23.625 62.625 C22.79355469 62.57988281 21.96210937 62.53476562 21.10546875 62.48828125 C19.06717795 62.3711381 17.03262908 62.19175746 15 62 C12.86854957 56.09193802 11.45302003 50.01817286 9.9609375 43.92578125 C9.67521881 42.76499557 9.38950012 41.6042099 9.09512329 40.4082489 C8.49379643 37.96184698 7.89375674 35.51512835 7.29492188 33.06811523 C6.37548918 29.31449711 5.44969659 25.56248555 4.5234375 21.81054688 C3.93971837 19.43238633 3.35637212 17.05413422 2.7734375 14.67578125 C2.49535248 13.55077713 2.21726746 12.42577301 1.93075562 11.26667786 C1.67694122 10.22517075 1.42312683 9.18366364 1.16162109 8.1105957 C0.9367099 7.19381546 0.71179871 6.27703522 0.48007202 5.33247375 C0 3 0 3 0 0 Z " fill="#FF781D" transform="translate(558,293)"/>
<path d="M0 0 C1.00023193 0.00523682 2.00046387 0.01047363 3.03100586 0.01586914 C4.1105957 0.0190918 5.19018555 0.02231445 6.30249023 0.02563477 C8.00695312 0.03820312 8.00695312 0.03820312 9.74584961 0.05102539 C11.45611328 0.05779297 11.45611328 0.05779297 13.20092773 0.06469727 C16.02845312 0.07652792 18.85587601 0.09301129 21.68334961 0.11352539 C20.94644966 9.22418561 19.37413038 18.14801909 17.77709961 27.13696289 C17.48918109 28.77213697 17.20154765 30.40736127 16.91418457 32.04263306 C16.31458937 35.45029209 15.7125885 38.85751371 15.10864258 42.2644043 C14.33510059 46.62828897 13.56607506 50.992954 12.79863739 55.35791588 C12.20621166 58.72613994 11.61221282 62.09408493 11.01765442 65.46193314 C10.73348455 67.07182135 10.44961761 68.68176307 10.1660614 70.29175949 C9.77030871 72.53648665 9.37263159 74.78086412 8.97436523 77.02514648 C8.74865845 78.30070404 8.52295166 79.5762616 8.29040527 80.89047241 C7.83386154 83.31440935 7.28157751 85.72061381 6.68334961 88.11352539 C-1.56665039 88.11352539 -9.81665039 88.11352539 -18.31665039 88.11352539 C-15.02640018 68.02364467 -11.62860303 47.95352191 -8.11300659 27.90176392 C-7.70630331 25.58004283 -7.30097406 23.25808064 -6.89700317 20.93588257 C-6.32608022 17.65713357 -5.74987604 14.37935739 -5.17211914 11.10180664 C-4.99943512 10.10553253 -4.8267511 9.10925842 -4.64883423 8.08279419 C-4.48789276 7.17681488 -4.32695129 6.27083557 -4.16113281 5.33740234 C-4.02156662 4.54219681 -3.88200043 3.74699127 -3.73820496 2.9276886 C-3.1078283 0.21485798 -2.83257822 0.13880797 0 0 Z " fill="#034784" transform="translate(348.316650390625,265.886474609375)"/>
<path d="M0 0 C5.94 0 11.88 0 18 0 C17.36002588 9.89358761 15.8331529 19.51107708 14.09375 29.25390625 C13.80570646 30.88859544 13.51807555 32.52335739 13.23083496 34.15818787 C12.63229741 37.55828336 12.03022944 40.95772672 11.42529297 44.35668945 C10.64995872 48.71357829 9.88145804 53.07163755 9.11528778 57.43014622 C8.52355485 60.79415985 7.92936314 64.15773517 7.33430481 67.52116203 C7.04992703 69.12904886 6.76605906 70.73702594 6.48271179 72.34509468 C6.08781879 74.58278095 5.689883 76.81990398 5.29101562 79.05688477 C5.06530884 80.32863052 4.83960205 81.60037628 4.60705566 82.91065979 C4 86 4 86 3 89 C-2.94 89 -8.88 89 -15 89 C-13.6786176 77.73758459 -11.98053217 66.62441765 -9.9609375 55.46875 C-9.67196862 53.85500494 -9.38337118 52.24119333 -9.09512329 50.62731934 C-8.34588 46.43799328 -7.59169235 42.24957306 -6.83636475 38.06134033 C-6.06231877 33.76410004 -5.29309949 29.46599599 -4.5234375 25.16796875 C-3.02026788 16.77780626 -1.51141123 8.38868176 0 0 Z " fill="#FF781D" transform="translate(702,266)"/>
<path d="M0 0 C1.3671875 1.29296875 1.3671875 1.29296875 2.875 3.1875 C6.215379 7.18884761 9.79058493 10.84691581 13.5 14.5 C17.52656985 18.47967043 21.38649225 22.49490325 25.0390625 26.82421875 C28.40235241 30.5559966 32.03176815 34.03429949 35.64648438 37.52148438 C39.89248935 41.67746804 39.89248935 41.67746804 41 45 C35.05935438 45.14930093 29.11982152 45.25766335 23.17773438 45.32958984 C21.16028803 45.35959984 19.14297036 45.40042213 17.12597656 45.45263672 C-3.41998538 45.97085831 -3.41998538 45.97085831 -10.13232422 40.84912109 C-13.34657182 37.66680589 -16.06946207 34.35379281 -18.625 30.625 C-19.15222656 29.88894531 -19.67945313 29.15289062 -20.22265625 28.39453125 C-21.49857806 26.60824071 -22.75182087 24.80578493 -24 23 C-21.58630037 17.36241907 -16.83810665 13.50987594 -12.5625 9.25 C-11.69044922 8.36183594 -10.81839844 7.47367187 -9.91992188 6.55859375 C-8.66211914 5.29982422 -8.66211914 5.29982422 -7.37890625 4.015625 C-6.6113501 3.24508789 -5.84379395 2.47455078 -5.05297852 1.68066406 C-3 0 -3 0 0 0 Z " fill="#034784" transform="translate(279,309)"/>
<path d="M0 0 C1.22847656 -0.00515625 2.45695312 -0.0103125 3.72265625 -0.015625 C6.9375 0.25 6.9375 0.25 9.9375 2.25 C9.30933502 6.19949704 8.0729471 9.44892028 6.375 13.0625 C5.91996094 14.03832031 5.46492188 15.01414062 4.99609375 16.01953125 C4.47208984 17.12361328 4.47208984 17.12361328 3.9375 18.25 C2.63425781 18.18039062 2.63425781 18.18039062 1.3046875 18.109375 C-5.86489349 17.83020519 -5.86489349 17.83020519 -12.625 19.875 C-17.52457421 24.6489441 -19.56581959 29.02441803 -20.73046875 35.73046875 C-20.85561356 36.42513748 -20.98075836 37.11980621 -21.10969543 37.83552551 C-21.50309654 40.03407982 -21.87714744 42.23537727 -22.25 44.4375 C-22.63770774 46.64943163 -23.02934563 48.86062925 -23.42243958 51.0716095 C-23.77546916 53.06896054 -24.11882345 55.06801452 -24.46166992 57.06713867 C-25.0625 60.25 -25.0625 60.25 -26.0625 63.25 C-32.0025 63.25 -37.9425 63.25 -44.0625 63.25 C-42.22164804 49.2811822 -39.92063728 35.42869599 -37.4375 21.5625 C-37.27966034 20.6754538 -37.12182068 19.78840759 -36.959198 18.8744812 C-36.50519307 16.32838959 -36.04648867 13.783196 -35.5859375 11.23828125 C-35.37824989 10.07394058 -35.37824989 10.07394058 -35.16636658 8.88607788 C-34.17802835 3.48105669 -34.17802835 3.48105669 -33.0625 1.25 C-27.4525 1.25 -21.8425 1.25 -16.0625 1.25 C-16.0625 2.9 -16.0625 4.55 -16.0625 6.25 C-15.32 5.63125 -14.5775 5.0125 -13.8125 4.375 C-9.03357598 0.68219508 -6.11444762 -0.02571797 0 0 Z " fill="#FF781D" transform="translate(487.0625,291.75)"/>
<path d="M0 0 C0.59510383 4.06654284 0.17874467 5.73188299 -2.125 9.1875 C-6.00776153 13.38990776 -10.65764941 16.77654535 -15.23681641 20.18041992 C-18.98255855 22.91881743 -18.98255855 22.91881743 -21 27 C-20.43603256 29.14817747 -19.77709253 31.27212501 -19.0625 33.375 C-17.68976655 37.42340034 -16.73500911 40.71196566 -17 45 C-17.99 45.33 -18.98 45.66 -20 46 C-20.45890625 45.46890625 -20.9178125 44.9378125 -21.390625 44.390625 C-24.49493717 40.81675301 -27.58181312 37.28145941 -31 34 C-34.91672161 35.34702066 -37.47321846 37.07866879 -40.5625 39.8125 C-49.68842326 47.23491758 -58.29851872 49.93362883 -70 49 C-67 47 -67 47 -65 46 C-66.65 44.35 -68.3 42.7 -70 41 C-66.15543538 38.43695692 -63.31283547 38.67614653 -58.7890625 38.5390625 C-55.31569964 37.86774027 -53.58148531 36.35619205 -51 34 C-52.82724609 33.90912109 -52.82724609 33.90912109 -54.69140625 33.81640625 C-56.31511277 33.73193597 -57.93881022 33.64729128 -59.5625 33.5625 C-60.36236328 33.52318359 -61.16222656 33.48386719 -61.98632812 33.44335938 C-66.71371506 33.19251844 -71.32476901 32.74678186 -76 32 C-73.83051911 28.50532606 -72.09884781 26.73899248 -68.15283203 25.74560547 C-66.60840831 25.43280043 -65.05959927 25.14113904 -63.5078125 24.8671875 C-62.68425262 24.7038089 -61.86069275 24.5404303 -61.01217651 24.37210083 C-58.38640399 23.85396952 -55.75653116 23.36296285 -53.125 22.875 C-50.50161138 22.37597276 -47.87962262 21.87109345 -45.25924683 21.35647583 C-43.63171183 21.03812492 -42.00228726 20.72923882 -40.37088013 20.43136597 C-34.49547594 19.30096597 -29.39543904 17.53896868 -24.8515625 13.4765625 C-24.3251416 13.01483643 -23.7987207 12.55311035 -23.25634766 12.07739258 C-22.71800293 11.59810303 -22.1796582 11.11881348 -21.625 10.625 C-8.31188709 -0.86582157 -8.31188709 -0.86582157 0 0 Z " fill="#034784" transform="translate(482,117)"/>
<path d="M0 0 C3.81223512 -0.11745244 7.62399682 -0.18766603 11.4375 -0.25 C12.50677734 -0.28351563 13.57605469 -0.31703125 14.67773438 -0.3515625 C23.62238213 -0.46097715 30.66149485 1.23352834 37.3125 7.5 C38.28123047 8.40492188 38.28123047 8.40492188 39.26953125 9.328125 C39.84058594 9.87984375 40.41164062 10.4315625 41 11 C41.825 11.7425 42.65 12.485 43.5 13.25 C45 15 45 15 45 18 C43.07226562 19.62573242 43.07226562 19.62573242 40.40625 21.35546875 C39.45878906 21.97744141 38.51132813 22.59941406 37.53515625 23.24023438 C36.53355469 23.88283203 35.53195313 24.52542969 34.5 25.1875 C33.49839844 25.84169922 32.49679688 26.49589844 31.46484375 27.16992188 C28.98247558 28.78937158 26.49417281 30.39881434 24 32 C19.49129546 27.74747185 15.77179694 23.03317166 12 18.125 C11.39671875 17.34769531 10.7934375 16.57039063 10.171875 15.76953125 C0 2.61243207 0 2.61243207 0 0 Z " fill="#034784" transform="translate(207,266)"/>
<path d="M0 0 C3.57755627 2.20742834 5.4258065 4.14664808 7 8 C7.62516103 12.35638525 7.98773174 16.93066119 6.0546875 20.98046875 C3.54232687 24.18017333 0.92601766 26.06523389 -3 27 C-7.99376316 27.55486257 -11.32657075 26.93252981 -15.48828125 24.2578125 C-18.52901665 21.72779493 -19.73769439 18.88047258 -20.27734375 15.01171875 C-20.49179677 10.45673669 -19.84819633 7.535692 -17 4 C-11.40561949 -1.03494246 -7.16829433 -1.63774739 0 0 Z " fill="#034784" transform="translate(369,226)"/>
<path d="M0 0 C1.95825873 -0.02694851 3.91662226 -0.04637218 5.875 -0.0625 C6.96554687 -0.07410156 8.05609375 -0.08570313 9.1796875 -0.09765625 C12 0 12 0 14 1 C14.66 0.67 15.32 0.34 16 0 C19.5 -0.25 19.5 -0.25 23 0 C25.32867177 3.49300765 25.14192599 4.40241622 24.6875 8.4375 C24.58824219 9.38496094 24.48898437 10.33242188 24.38671875 11.30859375 C24.05710402 13.60257911 23.61704715 15.76913723 23 18 C21.68 18 20.36 18 19 18 C19.33 13.71 19.66 9.42 20 5 C19.34 4.67 18.68 4.34 18 4 C13.5885273 7.23507998 13.15305442 10.84557192 12.296875 15.953125 C12.19890625 16.62859375 12.1009375 17.3040625 12 18 C10.68 18 9.36 18 8 18 C8.33 13.71 8.66 9.42 9 5 C8.34 4.67 7.68 4.34 7 4 C3.24084505 6.5061033 3.27436746 7.81949803 2.3125 12.125 C2.06113281 13.22070312 1.80976562 14.31640625 1.55078125 15.4453125 C1.27814453 16.70988281 1.27814453 16.70988281 1 18 C-0.32 18 -1.64 18 -3 18 C-2.69112547 15.56199034 -2.37805338 13.12464633 -2.0625 10.6875 C-1.97548828 9.99720703 -1.88847656 9.30691406 -1.79882812 8.59570312 C-1.40789865 5.59857712 -0.9584996 2.87549881 0 0 Z " fill="#757575" transform="translate(589,383)"/>
<path d="M0 0 C0.66 0 1.32 0 2 0 C2.99 0 3.98 0 5 0 C4.20066432 17.83345474 4.20066432 17.83345474 -0.3203125 23.71875 C-2.48737051 25.37176169 -3.79680354 25.40203196 -6.5 25.375 C-7.2734375 25.38273437 -8.046875 25.39046875 -8.84375 25.3984375 C-11.45159728 24.91655268 -12.33871866 24.01270624 -14 22 C-13.505 20.515 -13.505 20.515 -13 19 C-12.01 19 -11.02 19 -10 19 C-10 19.66 -10 20.32 -10 21 C-6.535 20.505 -6.535 20.505 -3 20 C-3 19.34 -3 18.68 -3 18 C-3.9075 18.0825 -4.815 18.165 -5.75 18.25 C-9 18 -9 18 -11.375 16.5 C-13.61516565 13.05359131 -13.79738892 9.94003935 -13 6 C-9.24188149 0.112281 -6.75399771 -0.1206071 0 0 Z M-6.1875 3.75 C-8.14268533 4.88336565 -8.14268533 4.88336565 -9 7 C-9.039992 8.99960012 -9.04346799 11.00047242 -9 13 C-7.23470405 14.21690533 -7.23470405 14.21690533 -5 15 C-2.30066074 14.07451225 -1.28813232 13.57626463 0 11 C0.039992 9.00039988 0.04346799 6.99952758 0 5 C-2.90271878 3.10570656 -2.90271878 3.10570656 -6.1875 3.75 Z " fill="#757575" transform="translate(313,383)"/>
<path d="M0 0 C1.32 0 2.64 0 4 0 C6.29612756 11.52164009 6.29612756 11.52164009 6 17 C6.66 17 7.32 17 8 17 C8.20625 16.236875 8.4125 15.47375 8.625 14.6875 C10.55894391 9.50101406 13.2785146 4.80966916 16 0 C17.65 0 19.3 0 21 0 C12.42553191 17.34042553 12.42553191 17.34042553 8 25 C6.68 25 5.36 25 4 25 C-0.44230769 8.18269231 -0.44230769 8.18269231 0 0 Z " fill="#757575" transform="translate(191,376)"/>
<path d="M0 0 C2 1.0625 2 1.0625 3 3 C3.1875 6.6875 3.1875 6.6875 3 10 C-1.29 10 -5.58 10 -10 10 C-9.67 11.32 -9.34 12.64 -9 14 C-5.62294375 13.46274105 -2.303314 12.88935377 1 12 C1 13.32 1 14.64 1 16 C-2.67901493 18.45267662 -5.72767592 18.80642262 -10 18 C-12.5625 16.0625 -12.5625 16.0625 -14 13 C-14.39518062 8.37309357 -13.8719547 5.08333765 -10.9375 1.4375 C-6.87914737 -0.54850235 -4.49909053 -0.50796183 0 0 Z M-5 3 C-6.32 4.32 -7.64 5.64 -9 7 C-6.36 7 -3.72 7 -1 7 C-1.33 6.01 -1.66 5.02 -2 4 C-2.99 3.67 -3.98 3.34 -5 3 Z " fill="#757575" transform="translate(639,383)"/>
<path d="M0 0 C2.0625 1.4375 2.0625 1.4375 3 4 C2.95563145 8.75630834 1.95006746 13.3561358 1 18 C-0.93627769 18.10807131 -2.87427756 18.1856225 -4.8125 18.25 C-6.43091797 18.31960938 -6.43091797 18.31960938 -8.08203125 18.390625 C-11 18 -11 18 -12.890625 16.14453125 C-14 14 -14 14 -13.9375 11.4375 C-12.76080551 8.37809433 -11.9343683 7.46718415 -9 6 C-5.25 5.8125 -5.25 5.8125 -2 6 C-4.84826598 3.63307034 -4.84826598 3.63307034 -8.1875 4.375 C-9.115625 4.58125 -10.04375 4.7875 -11 5 C-10.625 3.0625 -10.625 3.0625 -10 1 C-6.797207 -0.6013965 -3.47535925 -0.48229475 0 0 Z M-9 10 C-9.33 10.99 -9.66 11.98 -10 13 C-8.02 13.99 -8.02 13.99 -6 15 C-3.9600281 13.63676257 -3.9600281 13.63676257 -2 12 C-2 11.34 -2 10.68 -2 10 C-5.01031744 9.06576355 -5.86650268 8.95550089 -9 10 Z " fill="#757575" transform="translate(286,383)"/>
<path d="M0 0 C2 1.0625 2 1.0625 3 3 C3.1875 6.6875 3.1875 6.6875 3 10 C-1.29 10 -5.58 10 -10 10 C-8.68 11.32 -7.36 12.64 -6 14 C-3.69 13.34 -1.38 12.68 1 12 C1 13.32 1 14.64 1 16 C-2.75047482 18.50031654 -4.55856266 18.53603554 -9 18 C-12 16 -12 16 -14 13 C-14.59225096 8.54914429 -13.45018098 5.65480869 -10.9375 2 C-6.86721927 -0.77125496 -4.85751 -0.62677548 0 0 Z M-7.25 4.9375 C-8.11625 5.9584375 -8.11625 5.9584375 -9 7 C-6.03 7 -3.06 7 0 7 C-0.63941744 3.9194894 -0.63941744 3.9194894 -2.8125 3.0625 C-5.21828941 2.74787037 -5.21828941 2.74787037 -7.25 4.9375 Z " fill="#757575" transform="translate(342,383)"/>
<path d="M0 0 C2.4375 1.625 2.4375 1.625 4 4 C4 5.98 4 7.96 4 10 C-0.29 10 -4.58 10 -9 10 C-8.67 10.99 -8.34 11.98 -8 13 C-6.13803054 13.92393164 -6.13803054 13.92393164 -4 14 C-3.01 13.34 -2.02 12.68 -1 12 C1.1875 12.375 1.1875 12.375 3 13 C0.22332332 16.3656687 -1.17667343 17.87000107 -5.5625 18.5625 C-9 18 -9 18 -11.4375 16.5 C-13.59930653 13.04110955 -13.7923321 9.91505272 -13 6 C-9.37591558 0.32226775 -6.66016759 -0.57415238 0 0 Z M-8 5 C-8 5.66 -8 6.32 -8 7 C-5.36 7 -2.72 7 0 7 C-0.33 6.01 -0.66 5.02 -1 4 C-4.37104174 2.53921524 -4.78149208 2.85432805 -8 5 Z " fill="#757575" transform="translate(387,383)"/>
<path d="M0 0 C3.26104325 2.69036068 3.9034571 4.32419973 4.5 8.5 C3.9231981 12.53761333 2.85349783 14.14650217 0 17 C-3.20841035 18.60420518 -6.5193987 18.47462745 -10 18 C-12.5 16.5 -12.5 16.5 -14 14 C-14.61089984 9.18916379 -14.73857492 7.1571007 -12.125 3.0625 C-8.52188253 -0.43464343 -4.88073974 -0.83917857 0 0 Z M-7.25 3.375 C-9.33043703 5.02008445 -9.33043703 5.02008445 -9.9375 8.4375 C-10.36089166 11.92511403 -10.36089166 11.92511403 -8.5625 13.9375 C-8.046875 14.288125 -7.53125 14.63875 -7 15 C-5.02 14.34 -3.04 13.68 -1 13 C-0.67 10.69 -0.34 8.38 0 6 C-3.29954732 3.48926805 -3.29954732 3.48926805 -7.25 3.375 Z " fill="#757575" transform="translate(479,383)"/>
<path d="M0 0 C3.26104325 2.69036068 3.9034571 4.32419973 4.5 8.5 C3.9231981 12.53761333 2.85349783 14.14650217 0 17 C-3.20841035 18.60420518 -6.5193987 18.47462745 -10 18 C-12.5 16.5 -12.5 16.5 -14 14 C-14.61089984 9.18916379 -14.73857492 7.1571007 -12.125 3.0625 C-8.52188253 -0.43464343 -4.88073974 -0.83917857 0 0 Z M-7.25 3.375 C-9.33043703 5.02008445 -9.33043703 5.02008445 -9.9375 8.4375 C-10.36089166 11.92511403 -10.36089166 11.92511403 -8.5625 13.9375 C-8.046875 14.288125 -7.53125 14.63875 -7 15 C-5.02 14.34 -3.04 13.68 -1 13 C-0.67 10.69 -0.34 8.38 0 6 C-3.29954732 3.48926805 -3.29954732 3.48926805 -7.25 3.375 Z " fill="#757575" transform="translate(232,383)"/>
<path d="M0 0 C1.65 0.33 3.3 0.66 5 1 C5.66 3.64 6.32 6.28 7 9 C9.40072955 6.11912454 11.47291037 3.43595166 13 0 C14.32 0 15.64 0 17 0 C16.37386925 3.01551294 15.38788684 5.32390836 13.8203125 7.96875 C13.38589844 8.70480469 12.95148438 9.44085938 12.50390625 10.19921875 C12.04886719 10.95847656 11.59382813 11.71773438 11.125 12.5 C10.67769531 13.25925781 10.23039062 14.01851563 9.76953125 14.80078125 C4.83115467 23.11881379 4.83115467 23.11881379 3 25 C1.68 25 0.36 25 -1 25 C0.12451727 22.0280615 1.22293791 19.66559313 3 17 C2.80167592 14.57052999 2.47817853 12.37773176 2 10 C1.82855469 9.11570312 1.65710938 8.23140625 1.48046875 7.3203125 C0.99950714 4.87744275 0.50524823 2.43794536 0 0 Z " fill="#757575" transform="translate(247,383)"/>
<path d="M0 0 C0.99 0 1.98 0 3 0 C2.67 4.62 2.34 9.24 2 14 C3.65 13.67 5.3 13.34 7 13 C9.00293347 9.99559979 9.49271626 8.29006055 10.125 4.8125 C10.29257812 3.91144531 10.46015625 3.01039063 10.6328125 2.08203125 C10.75398438 1.39496094 10.87515625 0.70789063 11 0 C12.32 0 13.64 0 15 0 C14.41509121 6.14154225 13.45933748 12.00679849 12 18 C10.04196493 18.05389087 8.08351091 18.09274217 6.125 18.125 C4.48917969 18.15980469 4.48917969 18.15980469 2.8203125 18.1953125 C0 18 0 18 -2 16 C-2.77703544 10.38934703 -1.80317693 5.29683222 0 0 Z " fill="#757575" transform="translate(496,383)"/>
<path d="M0 0 C0.99 0.66 1.98 1.32 3 2 C3 2.99 3 3.98 3 5 C1.68 5.33 0.36 5.66 -1 6 C-1 5.34 -1 4.68 -1 4 C-2.65 4 -4.3 4 -6 4 C-4.49650603 7.00698793 -1.9581052 7.58257459 1 9 C2 10 2 10 2.25 12.375 C2 15 2 15 1 16.8125 C-2.18896605 18.70594859 -5.39056899 18.5639736 -9 18 C-11 16.6875 -11 16.6875 -12 15 C-12 14.01 -12 13.02 -12 12 C-10.68 12 -9.36 12 -8 12 C-8 12.66 -8 13.32 -8 14 C-6.02 14 -4.04 14 -2 14 C-3.82564274 11.98218435 -5.20362698 10.90055427 -7.6875 9.6875 C-10 8 -10 8 -10.5 4.9375 C-10.335 3.968125 -10.17 2.99875 -10 2 C-6.31282562 -0.45811625 -4.35654296 -0.31118164 0 0 Z " fill="#757575" transform="translate(573,383)"/>
<path d="M0 0 C5.61 0 11.22 0 17 0 C17 1.32 17 2.64 17 4 C14.69 4 12.38 4 10 4 C9.87882812 4.92941406 9.75765625 5.85882813 9.6328125 6.81640625 C7.96836555 19.09490334 7.96836555 19.09490334 6 25 C5.01 25 4.02 25 3 25 C3.41830366 17.77875787 3.95461111 10.95432222 6 4 C4.02 4 2.04 4 0 4 C0 2.68 0 1.36 0 0 Z " fill="#757575" transform="translate(442,376)"/>
<path d="M0 0 C1.32 0 2.64 0 4 0 C4 1.65 4 3.3 4 5 C4.99 5 5.98 5 7 5 C7 6.32 7 7.64 7 9 C5.68 9 4.36 9 3 9 C2.34 12.3 1.68 15.6 1 19 C2.32 19 3.64 19 5 19 C5 20.32 5 21.64 5 23 C2.125 23.1875 2.125 23.1875 -1 23 C-3 20 -3 20 -2.7578125 17.30078125 C-2.54898437 16.31464844 -2.34015625 15.32851563 -2.125 14.3125 C-1.92132813 13.31863281 -1.71765625 12.32476562 -1.5078125 11.30078125 C-1.34023438 10.54152344 -1.17265625 9.78226562 -1 9 C-1.99 9 -2.98 9 -4 9 C-3.67 7.68 -3.34 6.36 -3 5 C-2.01 5 -1.02 5 0 5 C0 3.35 0 1.7 0 0 Z " fill="#757575" transform="translate(406,378)"/>
<path d="M0 0 C3.63 0 7.26 0 11 0 C10.67 1.32 10.34 2.64 10 4 C9.05125 4.165 8.1025 4.33 7.125 4.5 C3.75722169 5.67537623 3.75722169 5.67537623 2.9375 8.7890625 C2.19214378 11.84932312 1.54081946 14.89740416 1 18 C-0.32 18 -1.64 18 -3 18 C-2.69112547 15.56199034 -2.37805338 13.12464633 -2.0625 10.6875 C-1.97548828 9.99720703 -1.88847656 9.30691406 -1.79882812 8.59570312 C-1.40789865 5.59857712 -0.9584996 2.87549881 0 0 Z " fill="#757575" transform="translate(524,383)"/>
<path d="M0 0 C1.32 0 2.64 0 4 0 C3.22095672 12.66970387 3.22095672 12.66970387 1 18 C0.01 18 -0.98 18 -2 18 C-1.03644647 5.33029613 -1.03644647 5.33029613 0 0 Z " fill="#757575" transform="translate(546,383)"/>
<path d="M0 0 C1.65 0 3.3 0 5 0 C4.67 1.65 4.34 3.3 4 5 C2.68 4.67 1.36 4.34 0 4 C0 2.68 0 1.36 0 0 Z " fill="#757575" transform="translate(547,376)"/>
</svg>
